<svg xmlns="http://www.w3.org/2000/svg" width="240" height="324" fill="none" id="bald-man"><path fill="#fff" fill-rule="evenodd" d="M200.256 272.088a740.44 740.44 0 0 0-1.247-18.774c-.987-12.455-2.28-24.92-4.432-37.232-2.123-12.147-5.095-23.959-9.375-35.535-1.986-5.37-4.137-9.952-7.257-14.779-2.95-4.565-6.715-7.658-11.405-10.413-4.226-2.483-9.135-6.79-13.188-9.57-1.692-1.161-5.173-1.083-6.333-2.8-1.52-2.248-.535-5.689-2.066-7.93-1.751-2.562-4.204-4.552-6.97-5.998-3.019-2.045-6.574-2.971-10.14-2.843-5.257-.319-10.551 1.355-13.927 5.636-1.684 2.136-2.667 4.601-2.803 7.33-.036.71.192 1.27.567 1.674-.222.297-.444.595-.664.895-.69-1.023-2.304-1.567-3.379-.795a47.405 47.405 0 0 1-11.333 6.008c-.94-.445-2.076-.239-2.88.487a6.434 6.434 0 0 1-1.035.759 47.775 47.775 0 0 1-4.532 1.001c-.48.082-.887.354-1.195.722-.457-.428-1.085-.633-1.787-.365-8.099 3.088-15.747 7.886-21.56 14.386-6.441 7.202-9.824 16.16-12.4 25.338-2.787 9.934-4.569 20.117-6.065 30.316-1.516 10.334-3.01 20.709-4.053 31.103-.587 5.85-.811 11.752-.545 17.627.132 2.936.4 5.863.827 8.771.1.681.204 1.464.372 2.247a.88.88 0 0 0-1.014 1.022c.72 4.806 6.528 6.206 10.534 6.759 6.553.905 13.14 1.407 19.756 1.446 6.501.038 13.001-.38 19.49-.753 6.65-.384 13.302-.769 19.954-1.159 26.649-1.563 53.299-3.109 79.948-4.672 2.435-.143 5.215-.337 7.301-1.749 2.858-1.937 3.005-5.015 2.836-8.16Z" clip-rule="evenodd"></path><path fill="#000" fill-rule="evenodd" d="M70.343 218.33c-.093-.174.122-.329.264-.204 3.235 2.84 4.929 7.401 5.284 11.617.376 4.471-.157 9.099-.361 13.568-.227 4.978-.43 9.957-.708 14.933-.28 5.048-.584 10.094-.844 15.143l-.584 11.357c-.062 1.211.073 2.699-.392 3.829-.72 1.751-2.857 1.48-3.306.017l-.014-.049-.04.032c-.397-1.319-.1-2.886-.033-4.249l.612-12.409c.432-8.771.818-17.543 1.282-26.312l.158-2.923c.217-3.935.384-7.86.517-11.794l.044-1.311c.127-3.95.026-7.679-1.88-11.245Zm78.424-72.813c1.803-.172 3.164.426 4.8 1.056.713.274 1.388.591 2.072.919.856.411 1.406 1.137 1.933 1.904l.282.414c2.196 3.218 3.672 6.93 5.339 10.433 1.949 4.098 3.917 8.187 5.825 12.304l.941 2.029c.471 1.014.94 2.029 1.402 3.047l.799 1.772c.802 1.797 1.522 3.698.378 5.552-1.063 1.724-2.948 3.058-4.441 4.391l-3.737 3.336c2.576 2.58 4.304 5.828 5.321 9.311 1.443-.601 3.206-.717 4.698-.977 2.09-.365 2.346 2.8.374 2.762-1.457-.029-3.165.12-4.659-.187.259 1.145.448 2.307.568 3.472.627 6.107-.745 12.249-2.175 18.158l-.118.485c-1.554 6.396-3.027 12.808-4.345 19.256a481.127 481.127 0 0 0-3.565 19.463c-1.073 6.627-1.833 13.291-2.65 19.954-.123 1.008-.758 1.872-1.871 1.872-.928 0-1.989-.866-1.872-1.872.842-7.255 2.037-14.473 3.224-21.678 2.045-12.409 4.619-24.71 7.579-36.931l.517-2.128c1.332-5.519 2.541-11.206 1.873-16.899-.545-4.636-2.482-9.579-6.312-12.458l-.116-.087c-.895-.656-1.239-1.911-.358-2.775l1.684-1.649 3.371-3.292.679-.665a64.93 64.93 0 0 1 1.723-1.637c.355-.322 1.317-.937 1.387-1.468.046-.346-.364-.954-.53-1.273l-.761-1.537c-.432-.876-.85-1.758-1.272-2.639-.875-1.825-1.761-3.645-2.617-5.479l-5.138-11.014c-1.449-3.108-2.741-6.388-4.636-9.261l-.373-.559c-.312-.472-.588-.926-.785-1.503-.189-.554-.427-1.163-.778-1.637-.82-1.111-2.389-1.741-3.702-1.974-.19-.034-.121-.296.042-.311Zm-39.518-2.893c.114 0 .131.163.026.194-1.584.477-3.097 1.245-4.331 2.355-.591.531-1.186 1.134-1.551 1.848a3.195 3.195 0 0 0-.273.862l-.018.101c-.094.541-.229.842-.504 1.275l-.047.074c-1.569 2.424-2.669 5.116-3.674 7.812l-2.19 5.878-2.188 5.879-2.115 5.682c-.39 1.046-.79 2.087-1.19 3.129-.174.451-.36.899-.519 1.356-.022.062-.09.438-.143.529l.018.031c.441.743 1.618 1.364 2.285 1.903l2.298 1.858c1.638 1.325 3.318 2.613 4.906 3.997.998.869.377 2.425-.736 2.788-1.864.608-3.692 1.336-5.529 2.023-.742.278-1.515.52-2.248.826l-.447.193c-.174.079-.09.078-.083.4.007.337.102.689.157 1.021.62 3.743 1.275 7.48 1.967 11.21 2.45 13.191 5.375 26.285 8.712 39.278 1.686 6.562 3.493 13.092 5.216 19.644 1.718 6.534 3.979 12.975 6.138 19.375.609 1.805-2.252 2.582-2.846.785-2.488-7.527-4.764-15.12-7.114-22.69-4.176-13.45-7.467-27.193-10.377-40.968a579.638 579.638 0 0 1-4.623-24.464l-.317-1.916c-.217-1.367-.34-2.79.721-3.871 1.037-1.055 2.816-1.429 4.18-1.924l.1-.037c.867-.324 1.741-.636 2.612-.958-1.282-1.01-2.55-2.043-3.83-3.052-1.031-.815-2.08-1.613-3.097-2.446-.84-.687-1.523-1.57-1.61-2.687-.09-1.143.4-2.202.794-3.25l.038-.101c.387-1.046.776-2.092 1.174-3.134l2.466-6.45c1.566-4.099 3.067-8.231 4.715-12.297.652-1.61 1.362-3.194 2.202-4.715.405-.734.839-1.452 1.31-2.144.529-.777 1.009-1.155 1.828-1.583 1.31-.685 2.338-1.834 3.653-2.54 1.291-.693 2.619-1.063 4.084-1.079Zm4.252-7.313c.05-.086.182-.047.184.051.034 2.037-.45 4.118-.747 6.132-.299 2.022-.395 4.155-.828 6.155a1.607 1.607 0 0 1-.052.275l-.021.069c-.182.56-.657 1.035-1.239 1.183.183 1.016.355 2.033.5 3.055.25 1.758.477 3.518.701 5.278l.268 2.113c.253 1.992.499 3.984.742 5.976.618.259 1.249.473 1.896.657 1.488.427 3.012.6 4.548.751 3.128.306 6.28.449 9.419.623l.673.038c3.529.202 7.077.238 10.597-.124a36.804 36.804 0 0 0 5.179-.908c.865-.217 1.706-.542 2.569-.754.287-.07.542-.233.829-.406a.903.903 0 0 1 .539-.33l.063-.011.063-.009.021-.01-.001.007c.176-.024.344-.024.502-.002.063-1.554.131-3.107.217-4.66.23-4.171.864-8.522.017-12.657-.028-.139.161-.188.21-.058 1.661 4.377 1.474 9.163 1.558 13.77.082 4.506.032 9.014.01 13.521.323.137.61.323.838.585.456.522.587 1.429 0 1.933a2.618 2.618 0 0 1-.852.486c-.016 3.915-.044 7.83-.083 11.745.744.575.813 1.941-.028 2.508-.141 12.679-.371 25.358-.562 38.034l-.4 26.596c-.053 3.544-.141 7.087-.173 10.63l.025.01.089.041c.149.07.371.183.417.299a.14.14 0 0 1 .013.067c.245.034.486.15.696.348.517.492.412 1.232 0 1.732l-.11.134c-.257.312-.744.432-1.142.368.004 2.212.018 4.424.011 6.635-.002.675-.013 1.351-.024 2.026l-.028 1.62c-.019.924-.101 2.098-1.047 2.514-1.067.468-2.025.084-2.457-1-.117-.294-.092-.568-.049-.858-.013-.437-.082-.942-.073-1.347l.035-1.689c.006-.26.016-.52.024-.781l-.031.004c-3.793.184-7.613.094-11.413.092l-1.689.002a108.48 108.48 0 0 1-4.231-.06l-.528-.023c-1.054-.049-2.162-.065-3.255-.159.139 1.122.269 2.245.385 3.369.11 1.066-.989 1.971-1.97 1.971-1.165 0-1.832-.916-1.971-1.971-.658-4.979-.928-10.004-1.557-14.986-.563-4.462-1.052-8.934-1.548-13.404l-.166-1.491a6148.646 6148.646 0 0 1-5.268-48.827l-.786-7.611c-.793-7.672-1.592-15.345-2.265-23.028a1139.93 1139.93 0 0 1-1.073-13.183c-.245-3.23-.399-6.443-.499-9.667-.395-.406-.593-1-.418-1.613.102-.357.221-.713.347-1.068l-.023-1.047c-.006-.33.329-.501.598-.446.488-1.182 1.025-2.354 1.474-3.525.726-1.895 1.324-3.936 2.35-5.69Zm-40.542 20.48c7.589-4.757 16.622-8.18 25.669-7.812.206.009.263.322.05.37-4.826 1.078-9.705 2.391-14.273 4.301a54.043 54.043 0 0 0-12.82 7.599c-7.159 5.721-12.724 13.164-16.388 21.553-2.146 4.914-3.65 10.102-4.964 15.292-1.39 5.493-2.536 11.045-3.489 16.63-1.881 11.033-2.977 22.187-3.56 33.361-.593 11.366-.348 22.74-.771 34.108-.073 1.969-2.887 1.931-3.03 0-.959-12.925-.428-26.055.459-38.97.796-11.611 2.188-23.197 4.429-34.62l.195-.99c2.095-10.569 4.622-21.394 9.686-30.966 4.324-8.171 11-14.96 18.807-19.856Zm105.378 50.513a.12.12 0 0 1 .229 0c.865 2.422.896 5.156 1.126 7.709l.018.196c.221 2.33.387 4.662.541 6.996l.058.875c.619 9.521 1.394 19.032 2.561 28.503 1.163 9.436 2.736 18.806 4.436 28.157.19 1.041-.271 2.101-1.363 2.401-.962.265-2.197-.328-2.4-1.363-1.056-5.368-1.91-10.742-2.671-16.156a396.11 396.11 0 0 1-2.985-28.717 286.764 286.764 0 0 1-.601-14.482 96.892 96.892 0 0 1 .142-6.732l.028-.517c.132-2.291.119-4.686.881-6.87Zm-81.999 60.645c.102-.055.227.058.163.163-1.47 2.389-3.457 4.448-5.378 6.479-2.009 2.122-3.968 4.308-6.017 6.389-1.48 1.502-3.862-.922-2.3-2.301 2.198-1.938 4.494-3.781 6.73-5.676l.978-.829c1.833-1.55 3.72-3.085 5.824-4.225Zm69.791-1.196c-.11-.209.141-.379.311-.241 1.185.965 2.248 2.115 3.392 3.132a58.502 58.502 0 0 0 3.517 2.865 66.82 66.82 0 0 0 3.725 2.641c1.056.694 2.144 1.249 3.249 1.825.512.066.986.317 1.366.794.6.754.663 2.175-.169 2.829l-.149.117c-.971.764-2.124.857-3.08 0-1.068-.956-2.077-2.008-3.102-3.019l-.308-.302a57.978 57.978 0 0 1-3.189-3.332l-.918-1.044c-1.701-1.941-3.473-4.033-4.645-6.265Zm-5.46-111.918c-.197-.13-.075-.482.168-.398l.447.154c1.865.649 3.784 1.368 5.477 2.366 1.82 1.073 3.5 2.35 5.106 3.721 3.322 2.838 6.149 6.327 8.551 9.964 4.821 7.297 7.802 15.655 10.208 24.017 2.567 8.917 4.542 18.025 6.156 27.159a327.753 327.753 0 0 1 3.735 28.04c.409 4.625.684 9.253.822 13.895.071 2.388.069 4.774.049 7.163-.005.614-.001 1.228.006 1.842l.023 1.842c.013 1.165.152 2.389-.124 3.527-.446 1.832-3.473 1.49-3.374-.382-.091-.623-.095-1.267-.071-1.912a9.251 9.251 0 0 0-.047-.254 1.032 1.032 0 0 1 .09-.674c.015-.309.029-.617.034-.919.02-1.23.019-2.455-.015-3.684a629.667 629.667 0 0 0-.279-7.776 379.572 379.572 0 0 0-.917-15.524c-1.46-17.98-4.543-36.062-9.72-53.359-2.405-8.033-5.721-15.918-10.475-22.859a60.35 60.35 0 0 0-7.132-8.57c-2.656-2.658-5.584-5.302-8.718-7.379ZM124.841 269.74l.359 2.596c.179 1.299.357 2.598.525 3.897 1.146-.157 2.317-.222 3.421-.32 1.932-.171 3.877-.254 5.815-.334 4.007-.166 8.034-.452 12.046-.432.041 0 .08.003.118.006l.199-5.123-2.818-.004c-2.388-.004-4.775-.025-7.163-.045-2.15-.019-4.301-.022-6.452-.066l-.921-.022c-1.63-.044-3.431.047-5.129-.153Zm22.72-7.436a4.856 4.856 0 0 1-.357.03c-.558.024-1.12.007-1.679.012-1.189.01-2.379.018-3.568.018-2.379 0-4.758.014-7.136.043-2.449.03-4.896.072-7.345.077a117.08 117.08 0 0 1-3.555-.063c.192 1.687.393 3.371.614 5.052 1.842-.249 3.823-.123 5.623-.14l.234-.003c2.456-.042 4.915-.011 7.373-.008 2.528.003 5.056.011 7.584.031l2.077.018.004-.105c.061-1.652.1-3.307.131-4.962Zm-24.553-8.066c.23 1.99.446 3.984.666 5.977.147-.023.295-.042.446-.058a83.477 83.477 0 0 1 3.566-.305c2.377-.147 4.754-.225 7.135-.289 2.448-.066 4.897-.116 7.346-.151 1.19-.016 2.378-.015 3.568-.006.558.003 1.122-.014 1.679.023.067.005.13.012.193.019l.042-2.993.023-1.495c-1.839.113-3.709.07-5.546.07l-.424.001c-2.309.011-4.618-.021-6.927-.069a163.363 163.363 0 0 1-7.136-.28 61.42 61.42 0 0 1-2.877-.249l-.479-.055c-.417-.049-.846-.089-1.275-.14Zm24.854-8.445c-4.429.352-8.834.499-13.275.542l-.666.006c-3.924.03-7.881.192-11.814.088l.706 6.119c.563-.026 1.129-.027 1.68-.047 1.12-.04 2.236-.05 3.356-.053 2.309-.005 4.618.015 6.926.011a446.78 446.78 0 0 0 7.137-.09c1.929-.037 3.878-.182 5.812-.177l.138-6.399Zm.187-8.702c-.513.171-1.119.182-1.783.212l-1.715.085c-.794.039-1.589.076-2.384.105-2.65.097-5.299.188-7.949.272-2.716.086-5.444.136-8.16.051a76.557 76.557 0 0 1-3.976-.223c-.328-.027-.662-.045-.997-.069.309 2.702.619 5.405.93 8.107 3.914-.481 7.859-.78 11.769-1.277l3.535-.452c3.534-.451 7.064-.894 10.611-1.267l.119-5.544Zm.189-8.798c-.753.186-1.611.177-2.335.222l-.133.01a80.875 80.875 0 0 1-4.117.189c-2.692.067-5.385.1-8.078.116l-1.619.01c-2.158.013-4.315.019-6.474-.032a155.21 155.21 0 0 1-4.15-.169c-.415-.021-.839-.035-1.264-.056.289 2.558.582 5.116.873 7.675.455-.073.912-.128 1.347-.201a69.813 69.813 0 0 1 3.352-.474c2.433-.291 4.878-.501 7.323-.678 2.509-.182 5.021-.336 7.531-.512l1.777-.126c.593-.041 1.185-.081 1.778-.117 1.012-.062 2.189.008 3.193-.212.272-.114.574-.14.876-.075l.12-5.57Zm.228-10.299c-.261.331-.65.505-1.114.565-2.417.313-4.896.364-7.333.512l-.429.027c-2.517.166-5.035.296-7.553.43-2.587.137-5.174.249-7.763.339a68.652 68.652 0 0 1-3.304.029l-.472-.007c-.452-.008-.925-.007-1.4-.022.263 2.392.528 4.785.797 7.176.484-.052.967-.092 1.436-.142 1.383-.146 2.765-.291 4.151-.4 2.626-.207 5.255-.332 7.886-.462 2.692-.133 5.386-.222 8.078-.348a86.551 86.551 0 0 0 3.912-.257c.913-.084 1.996-.394 2.948-.28.052-2.387.106-4.773.16-7.16Zm.212-9.225a1.007 1.007 0 0 1-.148.183c-1.064 1.052-2.375.97-3.785 1.081l-.087.007c-1.381.116-2.764.227-4.147.326-2.766.2-5.536.34-8.306.464-2.834.128-5.686.215-8.523.158-1.817-.038-3.719-.031-5.572-.208.284 2.635.57 5.269.859 7.904.521-.098 1.045-.174 1.542-.252 1.252-.197 2.505-.395 3.764-.54 2.515-.29 5.032-.561 7.552-.805 2.156-.209 4.311-.421 6.468-.613l1.295-.111c2.574-.217 5.18-.574 7.762-.627.426-.009.907.223 1.151.589.057-2.519.116-5.038.175-7.556Zm.179-7.469c-.657.08-1.366.035-1.972.055-1.534.05-3.068.096-4.601.142l-9.203.271c-3.134.093-6.278.162-9.413.118-1.378-.02-2.763-.022-4.142-.097l-.459-.028c-.567-.038-1.263-.043-1.943-.112l.802 7.437c1.844-.267 3.745-.366 5.573-.523l.391-.034c2.696-.246 5.406-.409 8.107-.592 2.772-.187 5.539-.415 8.306-.648 1.383-.116 2.766-.232 4.148-.36l.171-.017c1.306-.136 2.533-.426 3.69.344.169.112.301.263.392.431.051-2.129.1-4.258.153-6.387Zm.214-8.679c-5.605.226-11.21.397-16.819.473-3.157.042-6.31.012-9.467-.054a74.568 74.568 0 0 1-4.117-.199l-.512-.041c-.651-.055-1.334-.095-2.014-.16.281 2.557.56 5.114.837 7.672.669-.125 1.368-.182 1.955-.257l.133-.018c1.457-.2 2.928-.317 4.392-.446 2.851-.251 5.717-.413 8.576-.551 2.927-.141 5.856-.26 8.784-.391l2.929-.131 1.464-.063 2.091-.087c.344-.014.702-.06 1.046-.043l.098-.013.122-.014a1.34 1.34 0 0 1 .301-.176l.065-.025.136-5.476Zm-33.848-8.225c.26 2.302.518 4.605.772 6.907.799-.091 1.608-.141 2.371-.21 1.539-.138 3.086-.259 4.629-.33l3.086-.143c2.056-.096 4.113-.188 6.171-.263 5.633-.205 11.266-.441 16.895-.729l.123-4.685c-.271.29-.661.48-1.174.479-5.91-.016-11.825.019-17.734-.079-2.958-.049-5.913-.12-8.867-.272a50.361 50.361 0 0 1-4.334-.424c-.612-.085-1.282-.146-1.938-.251Zm-.946-8.202c.278 2.358.551 4.717.819 7.076.734-.131 1.492-.201 2.177-.294 1.471-.2 2.951-.36 4.433-.443 2.883-.164 5.768-.246 8.656-.307 5.909-.126 11.824-.125 17.734-.172.555-.004.967.216 1.238.544.041-1.473.084-2.945.129-4.418-.571-.06-1.137-.145-1.661-.182-1.609-.112-3.22-.215-4.831-.308a754.454 754.454 0 0 0-10.09-.504 1619.17 1619.17 0 0 0-10.097-.414l-1.472-.054c-2.341-.087-4.721-.197-7.035-.524Zm-1.058-8.88c.289 2.388.574 4.776.858 7.165l.086.74c2.815-.548 5.782-.708 8.621-.829 3.367-.143 6.727-.217 10.097-.207 3.366.011 6.727.09 10.09.229 1.681.07 3.361.15 5.041.241.462.025 1.003.012 1.56.02.013-.375.023-.751.036-1.126.051-1.52.101-3.041.153-4.561-1.136.584-2.613.819-3.755 1.068l-.13.029c-1.885.423-3.81.698-5.734.865-3.779.33-7.597.207-11.372-.112l-.661-.057c-3.315-.288-6.752-.652-9.966-1.473-1.531-.39-3.113-.937-4.485-1.73a18.72 18.72 0 0 1-.439-.262Zm31.919-28.379c.033-.13.226-.159.29-.038.446.848.613 1.866.922 2.775.334.978.645 1.962 1.013 2.928a40.143 40.143 0 0 0 2.757 5.824c1.071 1.85-1.927 3.17-2.715 1.145-.814-2.09-1.483-4.252-1.887-6.46-.198-1.078-.374-2.171-.431-3.266-.049-.94-.181-1.991.051-2.908Z" clip-rule="evenodd"></path><path fill="#fff" fill-rule="evenodd" d="M163.535 85.432c-1.912-8.064-6.092-15.568-12.785-21.633-20.14-19.919-57.125-9.107-56.957 20.91-.723 3.505-1.016 7.11-.777 10.685.099 1.526.759 3.655-.128 5.028-2 2.568-3.162 4.461-2.481 7.878.568 2.983 2.598 5.097 5.337 6.22 1.642.472 3.2 1.499 3.81 3.065 3.655 6.696 6.364 12.266 12.128 16.83 1.487 1.175 16.742 8.222 21.768 8.222 14.716 0 33.262-5.333 33.57-21.776.053-3.611-.581-7.265-.978-10.848-.967-8.177-.626-16.65-2.507-24.581Z" clip-rule="evenodd"></path><path fill="#000" fill-rule="evenodd" d="M163.204 81.4c.004-.1.147-.123.175-.024.547 1.94.857 3.918 1.285 5.89a125.1 125.1 0 0 1 1.124 5.719c.611 3.615 1.126 7.24 1.604 10.875l.119.908c.832 6.395 2.206 13.057 1.005 19.489-1.025 5.489-4.463 9.913-8.893 13.156-4.195 3.07-9.281 5.041-14.33 6.161-5.42 1.203-11.844 1.562-16.254-2.414-1.765-1.592.641-4.751 2.556-3.314 4.497 3.373 10.218 2.379 15.292 1.036l.154-.04c4.454-1.187 8.937-2.986 12.473-6.02 3.909-3.356 5.842-8.012 6.065-13.119.125-2.869-.142-5.735-.43-8.588l-.033-.317c-.331-3.262-.678-6.522-.998-9.785-.293-2.976-.545-5.97-.679-8.958l-.062-1.508c-.129-3.04-.304-6.123-.173-9.148Zm-52.742-25.256a38.785 38.785 0 0 1 23.872-3.896c7.83 1.23 15.015 5.271 20.385 11.066 2.622 2.83 4.95 6.102 6.437 9.678.739 1.776 1.317 3.629 1.625 5.532.159.978.315 1.992.344 2.984.028.918-.242 1.78-.21 2.713.005.146-.219.174-.253.034-.254-1.04-.867-1.828-1.251-2.816a38.984 38.984 0 0 0-.946-2.178l-.285-.616c-.828-1.79-1.817-3.505-2.796-5.215a36.999 36.999 0 0 0-7.461-9.214c-5.199-4.637-11.869-7.63-18.83-8.169-7.226-.56-14.555 1.164-20.725 4.98-6.171 3.817-10.836 9.75-13.259 16.58a36.615 36.615 0 0 0-2.054 10.69c-.08 1.848-.005 3.712.124 5.557l.065.88c.075 1.055.127 2.106-.03 3.135 1.112-.347 2.279-.49 3.45-.319 1.739.255 2.779.969 3.559 2.524a.09.09 0 0 1-.122.122c-1.011-.505-2.648-.24-3.72.025-1.115.276-2.12.755-3.067 1.403-1.753 1.199-3.127 3.055-3.464 5.185-.326 2.058.519 4.142 1.937 5.616.73.76 1.603 1.417 2.58 1.826 1.186.497 2.36.481 3.409 1.302.648.507.492 1.374.052 1.937 2.213 2.428 4.176 5.084 6.389 7.522a124.323 124.323 0 0 1 3.027 3.427l.367.439c.981 1.185 2.543 2.437 2.992 3.928.279.927-.714 2.139-1.717 1.717-1.539-.648-2.638-2.335-3.678-3.629l-.067-.083a35.534 35.534 0 0 1-2.944-4.239l-.292-.489c-1.6-2.693-3.187-5.486-4.208-8.445-.067.07-.139.133-.214.186-1.47 1.046-3.608.242-5.076-.437a10.806 10.806 0 0 1-3.648-2.768c-2.155-2.529-3.148-5.803-2.428-9.084.609-2.779 2.535-5.483 5.06-6.889-1.166-1.342-1.648-3.151-1.97-4.92-.41-2.258-.491-4.572-.38-6.861.222-4.56 1.395-9.056 3.209-13.232 3.245-7.471 8.981-13.722 16.212-17.488Zm-15.401 49.86c1.536-.287 2.967-.357 4.448.293 1.607.706 2.738 1.871 3.79 3.236 1.196 1.552-1.87 3.248-2.643 1.187l-.023-.063c-.207-.611-.577-1.2-1.047-1.743-.141.216-.33.406-.55.515-.269.132-.678.04-.743-.302-.071-.381.008-.841.227-1.163l.03-.044c-1.066-.858-2.347-1.485-3.49-1.686-.113-.021-.112-.208 0-.23Z" clip-rule="evenodd"></path><path fill="#000" fill-rule="evenodd" d="M132.112 117.319c.044-.041.114-.056.168-.022.914.578 1.022 2.523 1.033 3.646.378.098.751.21 1.105.289.75.166 1.504.31 2.257.463l.564.117c1.886.397 3.807.691 5.728.839 1.865.142 3.785.195 5.644-.046a14.93 14.93 0 0 0 2.365-.506c.912-.272 1.638-.723 2.487-1.118 2.124-.99 3.904 1.91 1.86 3.183-1.755 1.092-4.149 1.486-6.175 1.655-2.07.173-4.132-.017-6.178-.345-2.211-.354-4.377-.898-6.474-1.687a22.523 22.523 0 0 1-2.583-1.181l-.228-.121-.431-.228c-.157 1.401-.609 2.754-1.156 4.054l-.012-.023c-.299 1.026-1.379 1.661-2.454 1.208-1.261-.532-1.357-1.927-.623-2.918l.035-.046c.863-1.11 1.403-2.488 1.873-3.801.241-.673.464-1.362.658-2.051.14-.498.145-.999.537-1.361Zm32.5-11.154c-.748 2.26-2.378 4.001-4.649 4.766-2.251.758-4.755.482-7.055.072a34.16 34.16 0 0 1-1.523-.304c.417.258.785.621 1.137 1.006.521.568.993 1.167 1.137 1.878.142.706-.082 1.243-.491 1.648-.628.623-1.642.959-2.501 1.145-1.923.415-3.849.351-5.762-.075-.489-.109-.82-.371-1.006-.713-.226-.415-.244-.932-.115-1.402.13-.47.41-.903.816-1.143.334-.198.753-.252 1.227-.094.953.317 1.899.527 2.906.552a11.165 11.165 0 0 0 1.999-.133c-.14-.187-.277-.378-.41-.571a14.75 14.75 0 0 1-1.545-2.807c-.1-.236-.192-.473-.28-.71l-.038-.103a5.645 5.645 0 0 1-1.557-2.042c-.974-2.17-.815-4.863-.224-7.116.474-1.806 1.519-3.476 2.9-4.61.241-.398.4-.639.595-.841.794-.826 1.902-1.384 2.983-1.723 2.414-.757 5.043-.214 7.089 1.228 1.89 1.332 3.369 3.328 4.168 5.549.757 2.103.905 4.41.199 6.543ZM131.73 92.43c2.871-.024 5.792.824 8.122 2.52 2.229 1.624 3.978 4.022 3.976 6.877-.002 2.781-1.487 5.514-3.135 7.667-1.85 2.416-4.266 3.581-7.305 3.608-1.58.014-3.171-.126-4.739-.318l-.842-.106c-1.158-.149-2.329-.326-3.427-.725-5.228-1.896-5.39-8.742-3.454-13.117 1.495-3.379 5.279-6.673 9.052-6.278a13.47 13.47 0 0 1 1.752-.128Zm4.849 3.22c-3.595-1.615-7.963-1.132-11.451.591-1.381 1.508-2.391 3.408-2.8 5.153-.436 1.862-.372 3.868.284 5.673.801 2.203 2.773 2.749 4.901 3.087l.825.13.347.052c2.09.312 4.376.555 6.385.165 2.239-.436 3.661-2.245 4.78-4.1l.052-.087c1.162-1.944 2.135-4.308 1.16-6.535-.829-1.894-2.639-3.302-4.483-4.13Zm21.22.562a4.842 4.842 0 0 0-3.973-.35c-.573.196-1.069.515-1.549.873l-.191.145c-.591.454-1.143.683-1.586 1.296l-.057.082c-.223.334-.614.468-.971.423-.415 1.145-.586 2.383-.59 3.602l.001.161.002.165c.027 1.441.278 3.203 1.411 4.169 1.033.881 2.598 1.092 3.996 1.215l1.076.089.287.022c1.472.102 3.086.067 4.32-.805 1.075-.759 1.582-2.048 1.713-3.321.311-3.008-1.21-6.282-3.889-7.766Zm-26.856.278c1.979-1.012 4.358-.758 6.035.51-.149.028-.296.066-.442.139-.381.19-.617.573-.707.98a.867.867 0 0 0 .59 1.04c.395.125.863.183 1.23-.057a1.08 1.08 0 0 0 .414-.5l.012-.03.016-.023.006-.01c.001-.004-.006.004-.017.02l.032-.078a.882.882 0 0 0 .042-.096c.022-.018.041-.038.061-.059.304.469.544.999.696 1.588.974 3.782-3.023 7.707-6.594 8.1a5.59 5.59 0 0 1-3.601-.807l.028-.037c.41.074.9-.11 1.049-.568.38-1.167-.01-2.533-1.282-2.915-.818-.245-1.656.026-2.241.586a6.45 6.45 0 0 1-.391-3.524c.295-1.724 1.334-3.276 2.951-3.993.788-.35 1.466-.423 2.113-.266Zm20.849 2.333.061-.095c.611-.942 1.781-2.097 2.993-1.78.17.045.337.117.487.21.666-.09 1.364.061 1.936.413l-.015.04a.929.929 0 0 0 .078.672c.116.228.282.444.506.575.153.09.334.136.511.133.26-.005.488-.12.676-.294a.807.807 0 0 0 .212-.376c.093.089.183.188.268.3 1.405 1.848 1.211 4.819-.437 6.466-.067.067-.138.127-.208.188a4.102 4.102 0 0 1-2.94 1.674 4.415 4.415 0 0 1-3.174-.918.697.697 0 0 0 .194-.151 2.062 2.062 0 0 0 .431-.704l.031-.08c.005-.015.052-.15.04-.126l-.003.005.016-.039c.158-.393.094-.842-.28-1.089l-.041-.026a.865.865 0 0 0-.426-.105c-.382-.467-.95-.574-1.483-.438l-.019-.151-.007-.075c-.413-1.37-.213-2.927.593-4.229Zm-18.337-13.79.137-.022c1.037-.15 1.742.023 2.417.91.321.422.222 1.06 0 1.492-.718 1.395-2.693 1.106-4.023 1.383-1.299.27-2.594.639-3.81 1.174a24.819 24.819 0 0 0-3.538 1.931c-1.027.669-1.958 1.673-3.131 2.061-.053.018-.116-.03-.113-.085.084-1.335 1.198-2.56 2.061-3.51.998-1.099 2.211-2.074 3.475-2.85a18.87 18.87 0 0 1 4.175-1.918 17.233 17.233 0 0 1 2.35-.567Zm15.797 1.811c1.306-1.91 4.552-1.544 6.467-1.033 2.401.64 5.003 1.933 6.687 3.806 1.508 1.677-.748 3.856-2.444 2.445l-.453-.376-.29-.238c-1.302-1.063-2.591-2.026-4.178-2.736-1.86-.83-3.745-1.236-5.712-1.679-.077-.017-.122-.122-.077-.189Z" clip-rule="evenodd"></path><path fill="#000" fill-rule="evenodd" d="M129.449 129.599c1.71-4.009 5.444-6.955 9.742-8.033 3.156-.788 6.469-.763 9.686-.45 1.686.163 3.494.296 5.083.923 1.357.535 2.462 1.546 3.294 2.733.989 1.407 1.662 3.017 2.135 4.667.067.235.13.471.189.709-.206 1.245-.642 2.305-1.795 3.088-1.125.764-2.467 1.077-3.805 1.188a6.217 6.217 0 0 1-.375-.194c-2.085-1.195-3.552-4.017-6.184-3.635-2.349.341-3.895 3.298-5.292 5.031-4.483.523-8.963-.825-12.611-3.39a7.426 7.426 0 0 1-.067-2.637m33.176-3.041a17.37 17.37 0 0 0-1.346-2.901 16.498 16.498 0 0 0-7.714-6.843c-7.631-3.268-17.505-.964-23.668 4.397-2.105 1.833-4.234 4.526-4.878 7.423a1.075 1.075 0 0 0-.523.279c-4.453-2.805-9.038-5.503-12.626-9.39-2.606-2.825-4.418-6.168-5.528-9.841-.091-.302-.578-.258-.563.077l.012.234c-.046-.144-.265-.07-.282.07-.597 4.462-1.344 9.193-.656 13.679.411 2.676 1.626 4.635 3.251 6.751 1.741 2.268 3.711 4.377 5.726 6.4 1.279 1.284 2.614 2.765 4.18 3.707 1.821 1.094 3.886 1.925 5.829 2.769a75.6 75.6 0 0 0 6.028 2.347c4.087 1.384 8.311 2.34 12.609 2.759 3.441.334 7.374.698 10.672-.597 2.527-.992 4.567-2.786 6.186-4.944 1.761-2.351 3.154-5.029 3.924-7.852.8-2.933-.465-8.052-.633-8.524" clip-rule="evenodd"></path></svg>